<mxfile host="app.diagrams.net" modified="2022-06-03T16:31:05.214Z" agent="5.0 (Windows NT 10.0; Win64; x64) AppleWebKit/537.36 (KHTML, like Gecko) Chrome/91.0.4472.124 Safari/537.36 Edg/91.0.864.67" etag="-8GK1bZnTuofBY_LgTU4" version="18.2.0" type="github">
  <diagram id="r7Qnmz0kqEGP7yIvglu6" name="Page-1">
    <mxGraphModel dx="1673" dy="896" grid="1" gridSize="10" guides="1" tooltips="1" connect="1" arrows="1" fold="1" page="1" pageScale="1" pageWidth="827" pageHeight="1169" math="0" shadow="0">
      <root>
        <mxCell id="0" />
        <mxCell id="1" parent="0" />
        <mxCell id="sv6jZYAcOgZdvbpMtWue-15" value="" style="rounded=0;whiteSpace=wrap;html=1;fontSize=14;fontColor=#333333;strokeWidth=2;fillColor=none;dashed=1;strokeColor=#67AB9F;" vertex="1" parent="1">
          <mxGeometry x="1050" y="720" width="830" height="200" as="geometry" />
        </mxCell>
        <mxCell id="wkvPEHSoq6BBhoxMYLxY-88" value="" style="rounded=0;whiteSpace=wrap;html=1;fontSize=14;fontColor=#333333;strokeWidth=2;fillColor=none;dashed=1;strokeColor=#67AB9F;" parent="1" vertex="1">
          <mxGeometry x="1085.5" y="40" width="310" height="320" as="geometry" />
        </mxCell>
        <mxCell id="wkvPEHSoq6BBhoxMYLxY-10" style="edgeStyle=orthogonalEdgeStyle;rounded=0;orthogonalLoop=1;jettySize=auto;html=1;exitX=0.5;exitY=1;exitDx=0;exitDy=0;entryX=0.5;entryY=0;entryDx=0;entryDy=0;fontSize=12;endArrow=none;endFill=0;" parent="1" source="HiKQ1uyRHEYlZxJrQikm-1" target="wkvPEHSoq6BBhoxMYLxY-9" edge="1">
          <mxGeometry relative="1" as="geometry" />
        </mxCell>
        <mxCell id="HiKQ1uyRHEYlZxJrQikm-1" value="brands" style="rounded=1;whiteSpace=wrap;html=1;" parent="1" vertex="1">
          <mxGeometry x="150" y="200" width="120" height="60" as="geometry" />
        </mxCell>
        <mxCell id="HiKQ1uyRHEYlZxJrQikm-2" value="&lt;font style=&quot;font-size: 18px;&quot;&gt;HEADER&lt;/font&gt;" style="text;html=1;align=center;verticalAlign=middle;resizable=0;points=[];autosize=1;strokeColor=none;fillColor=none;" parent="1" vertex="1">
          <mxGeometry x="20" y="220" width="90" height="20" as="geometry" />
        </mxCell>
        <mxCell id="wkvPEHSoq6BBhoxMYLxY-34" style="edgeStyle=orthogonalEdgeStyle;rounded=0;orthogonalLoop=1;jettySize=auto;html=1;exitX=0.5;exitY=1;exitDx=0;exitDy=0;entryX=0.5;entryY=0;entryDx=0;entryDy=0;fontSize=12;endArrow=none;endFill=0;" parent="1" source="HiKQ1uyRHEYlZxJrQikm-3" target="wkvPEHSoq6BBhoxMYLxY-11" edge="1">
          <mxGeometry relative="1" as="geometry" />
        </mxCell>
        <mxCell id="HiKQ1uyRHEYlZxJrQikm-3" value="outdoor" style="rounded=1;whiteSpace=wrap;html=1;" parent="1" vertex="1">
          <mxGeometry x="300" y="200" width="120" height="60" as="geometry" />
        </mxCell>
        <mxCell id="HiKQ1uyRHEYlZxJrQikm-4" value="indoor" style="rounded=1;whiteSpace=wrap;html=1;" parent="1" vertex="1">
          <mxGeometry x="450" y="200" width="120" height="60" as="geometry" />
        </mxCell>
        <mxCell id="wkvPEHSoq6BBhoxMYLxY-35" style="edgeStyle=orthogonalEdgeStyle;rounded=0;orthogonalLoop=1;jettySize=auto;html=1;exitX=0.5;exitY=1;exitDx=0;exitDy=0;entryX=0.5;entryY=0;entryDx=0;entryDy=0;fontSize=12;endArrow=none;endFill=0;" parent="1" source="HiKQ1uyRHEYlZxJrQikm-5" target="wkvPEHSoq6BBhoxMYLxY-21" edge="1">
          <mxGeometry relative="1" as="geometry" />
        </mxCell>
        <mxCell id="HiKQ1uyRHEYlZxJrQikm-5" value="cotielog" style="rounded=1;whiteSpace=wrap;html=1;" parent="1" vertex="1">
          <mxGeometry x="600" y="200" width="120" height="60" as="geometry" />
        </mxCell>
        <mxCell id="wkvPEHSoq6BBhoxMYLxY-1" value="&lt;span style=&quot;font-size: 18px;&quot;&gt;* 현재는 cotie 상점이 네이버쇼핑으로 빠져있지만, 안에 집어 넣을 예정&lt;br&gt;* 추가 사항은 작업 하면서 플로우 차트 변경 예정임&lt;br&gt;* DB나 서버 용량에 따라 추가되거나 삭제될 수 있음&lt;br&gt;&lt;/span&gt;" style="text;html=1;align=left;verticalAlign=middle;resizable=0;points=[];autosize=1;strokeColor=none;fillColor=none;strokeWidth=0;" parent="1" vertex="1">
          <mxGeometry x="20" y="60" width="580" height="50" as="geometry" />
        </mxCell>
        <mxCell id="wkvPEHSoq6BBhoxMYLxY-2" value="&lt;span style=&quot;font-size: 18px;&quot;&gt;FOOTER&lt;/span&gt;" style="text;html=1;align=center;verticalAlign=middle;resizable=0;points=[];autosize=1;strokeColor=none;fillColor=none;" parent="1" vertex="1">
          <mxGeometry x="40" y="1040" width="90" height="20" as="geometry" />
        </mxCell>
        <mxCell id="wkvPEHSoq6BBhoxMYLxY-3" value="ABOUT US" style="rounded=1;whiteSpace=wrap;html=1;" parent="1" vertex="1">
          <mxGeometry x="170" y="1020" width="120" height="60" as="geometry" />
        </mxCell>
        <mxCell id="wkvPEHSoq6BBhoxMYLxY-4" value="&lt;span style=&quot;font-size: 18px;&quot;&gt;UTIL MENU&lt;/span&gt;" style="text;html=1;align=center;verticalAlign=middle;resizable=0;points=[];autosize=1;strokeColor=none;fillColor=none;" parent="1" vertex="1">
          <mxGeometry x="20" y="155" width="110" height="20" as="geometry" />
        </mxCell>
        <mxCell id="wkvPEHSoq6BBhoxMYLxY-5" value="마이페이지, 로그인, 장바구니(장바구니가 마이페이지 안으로 들어갈 수도 있음)" style="text;html=1;align=left;verticalAlign=middle;resizable=0;points=[];autosize=1;strokeColor=none;fillColor=none;strokeWidth=0;" parent="1" vertex="1">
          <mxGeometry x="150" y="155" width="440" height="20" as="geometry" />
        </mxCell>
        <mxCell id="wkvPEHSoq6BBhoxMYLxY-7" value="&lt;span style=&quot;font-size: 18px;&quot;&gt;LIST&lt;/span&gt;" style="text;html=1;align=center;verticalAlign=middle;resizable=0;points=[];autosize=1;strokeColor=none;fillColor=none;" parent="1" vertex="1">
          <mxGeometry x="40" y="300" width="50" height="20" as="geometry" />
        </mxCell>
        <mxCell id="wkvPEHSoq6BBhoxMYLxY-8" value="&lt;span style=&quot;font-size: 18px;&quot;&gt;* 자기소개 페이지는 어떻게 구성 할 건지 구성이 필요함&lt;/span&gt;" style="text;html=1;align=left;verticalAlign=middle;resizable=0;points=[];autosize=1;strokeColor=none;fillColor=none;strokeWidth=0;" parent="1" vertex="1">
          <mxGeometry x="40" y="1110" width="460" height="20" as="geometry" />
        </mxCell>
        <mxCell id="wkvPEHSoq6BBhoxMYLxY-9" value="회사소개페이지" style="rounded=1;whiteSpace=wrap;html=1;fillColor=#dae8fc;strokeColor=#6c8ebf;" parent="1" vertex="1">
          <mxGeometry x="150" y="290" width="120" height="60" as="geometry" />
        </mxCell>
        <mxCell id="wkvPEHSoq6BBhoxMYLxY-16" style="edgeStyle=orthogonalEdgeStyle;rounded=0;orthogonalLoop=1;jettySize=auto;html=1;exitX=0.5;exitY=1;exitDx=0;exitDy=0;entryX=0.5;entryY=0;entryDx=0;entryDy=0;fontSize=12;endArrow=none;endFill=0;" parent="1" source="wkvPEHSoq6BBhoxMYLxY-11" target="wkvPEHSoq6BBhoxMYLxY-12" edge="1">
          <mxGeometry relative="1" as="geometry" />
        </mxCell>
        <mxCell id="wkvPEHSoq6BBhoxMYLxY-11" value="패션" style="rounded=1;whiteSpace=wrap;html=1;fillColor=#dae8fc;strokeColor=#6c8ebf;" parent="1" vertex="1">
          <mxGeometry x="300" y="290" width="120" height="60" as="geometry" />
        </mxCell>
        <mxCell id="wkvPEHSoq6BBhoxMYLxY-12" value="리드줄" style="rounded=1;whiteSpace=wrap;html=1;fillColor=#dae8fc;strokeColor=#6c8ebf;" parent="1" vertex="1">
          <mxGeometry x="300" y="370" width="120" height="60" as="geometry" />
        </mxCell>
        <mxCell id="wkvPEHSoq6BBhoxMYLxY-18" value="&lt;span style=&quot;font-size: 18px;&quot;&gt;DETAIL&lt;br&gt;PAGE&lt;br&gt;구성&lt;br&gt;&lt;/span&gt;" style="text;html=1;align=center;verticalAlign=middle;resizable=0;points=[];autosize=1;strokeColor=none;fillColor=none;" parent="1" vertex="1">
          <mxGeometry x="25" y="490" width="80" height="50" as="geometry" />
        </mxCell>
        <mxCell id="wkvPEHSoq6BBhoxMYLxY-30" value="" style="edgeStyle=orthogonalEdgeStyle;rounded=0;orthogonalLoop=1;jettySize=auto;html=1;fontSize=12;endArrow=none;endFill=0;" parent="1" source="wkvPEHSoq6BBhoxMYLxY-19" target="HiKQ1uyRHEYlZxJrQikm-4" edge="1">
          <mxGeometry relative="1" as="geometry" />
        </mxCell>
        <mxCell id="wkvPEHSoq6BBhoxMYLxY-31" style="edgeStyle=orthogonalEdgeStyle;rounded=0;orthogonalLoop=1;jettySize=auto;html=1;exitX=0.5;exitY=1;exitDx=0;exitDy=0;entryX=0.5;entryY=0;entryDx=0;entryDy=0;fontSize=12;endArrow=none;endFill=0;" parent="1" source="wkvPEHSoq6BBhoxMYLxY-19" target="wkvPEHSoq6BBhoxMYLxY-20" edge="1">
          <mxGeometry relative="1" as="geometry" />
        </mxCell>
        <mxCell id="wkvPEHSoq6BBhoxMYLxY-19" value="리빙" style="rounded=1;whiteSpace=wrap;html=1;fillColor=#dae8fc;strokeColor=#6c8ebf;" parent="1" vertex="1">
          <mxGeometry x="450" y="290" width="120" height="60" as="geometry" />
        </mxCell>
        <mxCell id="wkvPEHSoq6BBhoxMYLxY-20" value="장난감" style="rounded=1;whiteSpace=wrap;html=1;fillColor=#dae8fc;strokeColor=#6c8ebf;" parent="1" vertex="1">
          <mxGeometry x="450" y="370" width="120" height="60" as="geometry" />
        </mxCell>
        <mxCell id="wkvPEHSoq6BBhoxMYLxY-32" style="edgeStyle=orthogonalEdgeStyle;rounded=0;orthogonalLoop=1;jettySize=auto;html=1;exitX=0.5;exitY=1;exitDx=0;exitDy=0;entryX=0.5;entryY=0;entryDx=0;entryDy=0;fontSize=12;endArrow=none;endFill=0;" parent="1" source="wkvPEHSoq6BBhoxMYLxY-21" target="wkvPEHSoq6BBhoxMYLxY-22" edge="1">
          <mxGeometry relative="1" as="geometry" />
        </mxCell>
        <mxCell id="wkvPEHSoq6BBhoxMYLxY-21" value="공지사항" style="rounded=1;whiteSpace=wrap;html=1;fillColor=#dae8fc;strokeColor=#6c8ebf;" parent="1" vertex="1">
          <mxGeometry x="600" y="290" width="120" height="60" as="geometry" />
        </mxCell>
        <mxCell id="wkvPEHSoq6BBhoxMYLxY-22" value="FAQ" style="rounded=1;whiteSpace=wrap;html=1;fillColor=#dae8fc;strokeColor=#6c8ebf;" parent="1" vertex="1">
          <mxGeometry x="600" y="370" width="120" height="60" as="geometry" />
        </mxCell>
        <mxCell id="wkvPEHSoq6BBhoxMYLxY-29" value="" style="edgeStyle=orthogonalEdgeStyle;rounded=0;orthogonalLoop=1;jettySize=auto;html=1;fontSize=12;endArrow=none;endFill=0;entryX=0.5;entryY=1;entryDx=0;entryDy=0;" parent="1" target="HiKQ1uyRHEYlZxJrQikm-4" edge="1">
          <mxGeometry relative="1" as="geometry">
            <mxPoint x="510" y="290" as="sourcePoint" />
            <mxPoint x="370" y="270" as="targetPoint" />
          </mxGeometry>
        </mxCell>
        <mxCell id="wkvPEHSoq6BBhoxMYLxY-36" value="구매하기버튼" style="rounded=1;whiteSpace=wrap;html=1;fillColor=#ffe6cc;strokeColor=#d79b00;" parent="1" vertex="1">
          <mxGeometry x="120" y="480" width="120" height="60" as="geometry" />
        </mxCell>
        <mxCell id="wkvPEHSoq6BBhoxMYLxY-39" value="상세 선택" style="rounded=1;whiteSpace=wrap;html=1;fillColor=#ffe6cc;strokeColor=#d79b00;" parent="1" vertex="1">
          <mxGeometry x="260" y="480" width="120" height="60" as="geometry" />
        </mxCell>
        <mxCell id="wkvPEHSoq6BBhoxMYLxY-40" value="상세정보&lt;br&gt;(포토샵 작업)" style="rounded=1;whiteSpace=wrap;html=1;fillColor=#ffe6cc;strokeColor=#d79b00;" parent="1" vertex="1">
          <mxGeometry x="400" y="480" width="120" height="60" as="geometry" />
        </mxCell>
        <mxCell id="wkvPEHSoq6BBhoxMYLxY-41" value="&lt;span style=&quot;font-size: 18px;&quot;&gt;[페이지 구성안]&lt;/span&gt;" style="text;html=1;align=left;verticalAlign=middle;resizable=0;points=[];autosize=1;strokeColor=none;fillColor=none;strokeWidth=0;" parent="1" vertex="1">
          <mxGeometry x="25" y="30" width="140" height="20" as="geometry" />
        </mxCell>
        <mxCell id="wkvPEHSoq6BBhoxMYLxY-42" value="리뷰" style="rounded=1;whiteSpace=wrap;html=1;fillColor=#ffe6cc;strokeColor=#d79b00;" parent="1" vertex="1">
          <mxGeometry x="540" y="480" width="120" height="60" as="geometry" />
        </mxCell>
        <mxCell id="wkvPEHSoq6BBhoxMYLxY-43" value="반품 교환정보" style="rounded=1;whiteSpace=wrap;html=1;fillColor=#ffe6cc;strokeColor=#d79b00;" parent="1" vertex="1">
          <mxGeometry x="120" y="555" width="120" height="60" as="geometry" />
        </mxCell>
        <mxCell id="wkvPEHSoq6BBhoxMYLxY-44" value="최근 본 상품" style="rounded=1;whiteSpace=wrap;html=1;fillColor=#ffe6cc;strokeColor=#d79b00;" parent="1" vertex="1">
          <mxGeometry x="260" y="555" width="120" height="60" as="geometry" />
        </mxCell>
        <mxCell id="wkvPEHSoq6BBhoxMYLxY-45" value="쿠폰" style="rounded=1;whiteSpace=wrap;html=1;fillColor=#ffe6cc;strokeColor=#d79b00;" parent="1" vertex="1">
          <mxGeometry x="400" y="555" width="120" height="60" as="geometry" />
        </mxCell>
        <mxCell id="wkvPEHSoq6BBhoxMYLxY-46" value="&lt;span style=&quot;font-size: 18px;&quot;&gt;MY&lt;br&gt;PAGE &lt;br&gt;구성&lt;br&gt;&lt;/span&gt;" style="text;html=1;align=center;verticalAlign=middle;resizable=0;points=[];autosize=1;strokeColor=none;fillColor=none;" parent="1" vertex="1">
          <mxGeometry x="35" y="660" width="60" height="50" as="geometry" />
        </mxCell>
        <mxCell id="wkvPEHSoq6BBhoxMYLxY-47" value="찜한 상품" style="rounded=1;whiteSpace=wrap;html=1;fillColor=#e1d5e7;strokeColor=#9673a6;" parent="1" vertex="1">
          <mxGeometry x="130" y="660" width="120" height="60" as="geometry" />
        </mxCell>
        <mxCell id="wkvPEHSoq6BBhoxMYLxY-48" value="구매내역" style="rounded=1;whiteSpace=wrap;html=1;fillColor=#e1d5e7;strokeColor=#9673a6;" parent="1" vertex="1">
          <mxGeometry x="270" y="660" width="120" height="60" as="geometry" />
        </mxCell>
        <mxCell id="wkvPEHSoq6BBhoxMYLxY-49" value="주소정보" style="rounded=1;whiteSpace=wrap;html=1;fillColor=#e1d5e7;strokeColor=#9673a6;" parent="1" vertex="1">
          <mxGeometry x="410" y="660" width="120" height="60" as="geometry" />
        </mxCell>
        <mxCell id="wkvPEHSoq6BBhoxMYLxY-50" value="&lt;span style=&quot;font-size: 18px;&quot;&gt;JOIN&lt;br&gt;&lt;/span&gt;" style="text;html=1;align=center;verticalAlign=middle;resizable=0;points=[];autosize=1;strokeColor=none;fillColor=none;" parent="1" vertex="1">
          <mxGeometry x="40" y="830" width="60" height="20" as="geometry" />
        </mxCell>
        <mxCell id="wkvPEHSoq6BBhoxMYLxY-57" style="edgeStyle=orthogonalEdgeStyle;rounded=0;orthogonalLoop=1;jettySize=auto;html=1;exitX=1;exitY=0.5;exitDx=0;exitDy=0;entryX=0;entryY=0.5;entryDx=0;entryDy=0;fontSize=12;endArrow=none;endFill=0;" parent="1" source="wkvPEHSoq6BBhoxMYLxY-51" target="wkvPEHSoq6BBhoxMYLxY-53" edge="1">
          <mxGeometry relative="1" as="geometry" />
        </mxCell>
        <mxCell id="wkvPEHSoq6BBhoxMYLxY-51" value="약관동의" style="rounded=1;whiteSpace=wrap;html=1;fillColor=#fff2cc;strokeColor=#d6b656;" parent="1" vertex="1">
          <mxGeometry x="120" y="810" width="120" height="60" as="geometry" />
        </mxCell>
        <mxCell id="wkvPEHSoq6BBhoxMYLxY-59" style="edgeStyle=orthogonalEdgeStyle;rounded=0;orthogonalLoop=1;jettySize=auto;html=1;exitX=1;exitY=0.5;exitDx=0;exitDy=0;fontSize=12;endArrow=none;endFill=0;" parent="1" source="wkvPEHSoq6BBhoxMYLxY-52" target="wkvPEHSoq6BBhoxMYLxY-54" edge="1">
          <mxGeometry relative="1" as="geometry" />
        </mxCell>
        <mxCell id="wkvPEHSoq6BBhoxMYLxY-52" value="개인정보 수집" style="rounded=1;whiteSpace=wrap;html=1;fillColor=#fff2cc;strokeColor=#d6b656;" parent="1" vertex="1">
          <mxGeometry x="400" y="810" width="120" height="60" as="geometry" />
        </mxCell>
        <mxCell id="wkvPEHSoq6BBhoxMYLxY-58" style="edgeStyle=orthogonalEdgeStyle;rounded=0;orthogonalLoop=1;jettySize=auto;html=1;exitX=1;exitY=0.5;exitDx=0;exitDy=0;entryX=0;entryY=0.5;entryDx=0;entryDy=0;fontSize=12;endArrow=none;endFill=0;" parent="1" source="wkvPEHSoq6BBhoxMYLxY-53" target="wkvPEHSoq6BBhoxMYLxY-52" edge="1">
          <mxGeometry relative="1" as="geometry" />
        </mxCell>
        <mxCell id="wkvPEHSoq6BBhoxMYLxY-53" value="본인인증" style="rounded=1;whiteSpace=wrap;html=1;fillColor=#fff2cc;strokeColor=#d6b656;" parent="1" vertex="1">
          <mxGeometry x="260" y="810" width="120" height="60" as="geometry" />
        </mxCell>
        <mxCell id="wkvPEHSoq6BBhoxMYLxY-54" value="가입완료" style="rounded=1;whiteSpace=wrap;html=1;fillColor=#fff2cc;strokeColor=#d6b656;" parent="1" vertex="1">
          <mxGeometry x="540" y="810" width="120" height="60" as="geometry" />
        </mxCell>
        <mxCell id="wkvPEHSoq6BBhoxMYLxY-55" value="최근 본 상품" style="rounded=1;whiteSpace=wrap;html=1;fillColor=#e1d5e7;strokeColor=#9673a6;" parent="1" vertex="1">
          <mxGeometry x="550" y="660" width="120" height="60" as="geometry" />
        </mxCell>
        <mxCell id="wkvPEHSoq6BBhoxMYLxY-56" value="내가 작성한 리뷰" style="rounded=1;whiteSpace=wrap;html=1;fillColor=#e1d5e7;strokeColor=#9673a6;" parent="1" vertex="1">
          <mxGeometry x="130" y="730" width="120" height="60" as="geometry" />
        </mxCell>
        <mxCell id="wkvPEHSoq6BBhoxMYLxY-60" value="&lt;span style=&quot;font-size: 18px;&quot;&gt;FIND ID OR&lt;br&gt;PASSWORD&lt;br&gt;&lt;/span&gt;" style="text;html=1;align=center;verticalAlign=middle;resizable=0;points=[];autosize=1;strokeColor=none;fillColor=none;" parent="1" vertex="1">
          <mxGeometry x="15" y="910" width="120" height="40" as="geometry" />
        </mxCell>
        <mxCell id="wkvPEHSoq6BBhoxMYLxY-65" value="" style="edgeStyle=orthogonalEdgeStyle;rounded=0;orthogonalLoop=1;jettySize=auto;html=1;fontSize=12;endArrow=classic;endFill=1;startArrow=none;startFill=0;" parent="1" source="wkvPEHSoq6BBhoxMYLxY-61" target="wkvPEHSoq6BBhoxMYLxY-64" edge="1">
          <mxGeometry relative="1" as="geometry" />
        </mxCell>
        <mxCell id="wkvPEHSoq6BBhoxMYLxY-78" style="edgeStyle=orthogonalEdgeStyle;rounded=0;orthogonalLoop=1;jettySize=auto;html=1;exitX=0.5;exitY=1;exitDx=0;exitDy=0;entryX=0;entryY=0.5;entryDx=0;entryDy=0;fontSize=12;fontColor=#FF9999;startArrow=none;startFill=0;endArrow=classic;endFill=1;" parent="1" source="wkvPEHSoq6BBhoxMYLxY-61" target="wkvPEHSoq6BBhoxMYLxY-68" edge="1">
          <mxGeometry relative="1" as="geometry" />
        </mxCell>
        <mxCell id="wkvPEHSoq6BBhoxMYLxY-61" value="HOME" style="rounded=1;whiteSpace=wrap;html=1;" parent="1" vertex="1">
          <mxGeometry x="850" y="55" width="120" height="60" as="geometry" />
        </mxCell>
        <mxCell id="wkvPEHSoq6BBhoxMYLxY-62" value="" style="shape=link;html=1;rounded=0;fontSize=12;endArrow=none;endFill=0;" parent="1" edge="1">
          <mxGeometry width="100" relative="1" as="geometry">
            <mxPoint x="826" y="20" as="sourcePoint" />
            <mxPoint x="826" y="1150" as="targetPoint" />
          </mxGeometry>
        </mxCell>
        <mxCell id="wkvPEHSoq6BBhoxMYLxY-67" value="" style="edgeStyle=orthogonalEdgeStyle;rounded=0;orthogonalLoop=1;jettySize=auto;html=1;fontSize=12;startArrow=none;startFill=0;endArrow=classic;endFill=1;" parent="1" source="wkvPEHSoq6BBhoxMYLxY-64" target="wkvPEHSoq6BBhoxMYLxY-66" edge="1">
          <mxGeometry relative="1" as="geometry" />
        </mxCell>
        <mxCell id="wkvPEHSoq6BBhoxMYLxY-64" value="회원가입" style="rounded=1;whiteSpace=wrap;html=1;" parent="1" vertex="1">
          <mxGeometry x="1105" y="55" width="120" height="60" as="geometry" />
        </mxCell>
        <mxCell id="wkvPEHSoq6BBhoxMYLxY-86" value="" style="edgeStyle=orthogonalEdgeStyle;rounded=0;orthogonalLoop=1;jettySize=auto;html=1;fontSize=14;fontColor=#333333;startArrow=none;startFill=0;endArrow=classic;endFill=1;" parent="1" source="wkvPEHSoq6BBhoxMYLxY-66" target="wkvPEHSoq6BBhoxMYLxY-85" edge="1">
          <mxGeometry relative="1" as="geometry" />
        </mxCell>
        <mxCell id="wkvPEHSoq6BBhoxMYLxY-66" value="약관동의" style="rounded=1;whiteSpace=wrap;html=1;fillColor=#f5f5f5;strokeColor=#666666;fontColor=#333333;" parent="1" vertex="1">
          <mxGeometry x="1480" y="55" width="120" height="60" as="geometry" />
        </mxCell>
        <mxCell id="wkvPEHSoq6BBhoxMYLxY-77" value="" style="edgeStyle=orthogonalEdgeStyle;rounded=0;orthogonalLoop=1;jettySize=auto;html=1;fontSize=12;fontColor=#FF9999;startArrow=classic;startFill=1;endArrow=classic;endFill=1;" parent="1" source="wkvPEHSoq6BBhoxMYLxY-68" target="wkvPEHSoq6BBhoxMYLxY-76" edge="1">
          <mxGeometry relative="1" as="geometry" />
        </mxCell>
        <mxCell id="wkvPEHSoq6BBhoxMYLxY-68" value="로그인" style="rounded=1;whiteSpace=wrap;html=1;fillColor=#d5e8d4;strokeColor=#82b366;" parent="1" vertex="1">
          <mxGeometry x="1105" y="160" width="120" height="60" as="geometry" />
        </mxCell>
        <mxCell id="wkvPEHSoq6BBhoxMYLxY-72" value="&lt;font color=&quot;#ff9999&quot;&gt;회원이 아니라면&lt;/font&gt;" style="text;html=1;align=center;verticalAlign=middle;resizable=0;points=[];autosize=1;strokeColor=none;fillColor=none;fontSize=12;" parent="1" vertex="1">
          <mxGeometry x="982" y="59" width="100" height="20" as="geometry" />
        </mxCell>
        <mxCell id="wkvPEHSoq6BBhoxMYLxY-73" value="&lt;font color=&quot;#7ea6e0&quot;&gt;회원이라면&lt;/font&gt;" style="text;html=1;align=center;verticalAlign=middle;resizable=0;points=[];autosize=1;strokeColor=none;fillColor=none;fontSize=12;" parent="1" vertex="1">
          <mxGeometry x="970" y="167" width="80" height="20" as="geometry" />
        </mxCell>
        <mxCell id="wkvPEHSoq6BBhoxMYLxY-81" value="" style="edgeStyle=orthogonalEdgeStyle;rounded=0;orthogonalLoop=1;jettySize=auto;html=1;fontSize=12;fontColor=#FF9999;startArrow=none;startFill=0;endArrow=none;endFill=0;" parent="1" source="wkvPEHSoq6BBhoxMYLxY-76" target="wkvPEHSoq6BBhoxMYLxY-80" edge="1">
          <mxGeometry relative="1" as="geometry" />
        </mxCell>
        <mxCell id="wkvPEHSoq6BBhoxMYLxY-76" value="로그아웃" style="rounded=1;whiteSpace=wrap;html=1;fillColor=#f8cecc;strokeColor=#b85450;" parent="1" vertex="1">
          <mxGeometry x="1256" y="160" width="120" height="60" as="geometry" />
        </mxCell>
        <mxCell id="wkvPEHSoq6BBhoxMYLxY-80" value="마이페이지" style="rounded=1;whiteSpace=wrap;html=1;fillColor=#f8cecc;strokeColor=#b85450;" parent="1" vertex="1">
          <mxGeometry x="1256" y="270" width="120" height="60" as="geometry" />
        </mxCell>
        <mxCell id="wkvPEHSoq6BBhoxMYLxY-82" value="&lt;font color=&quot;#333333&quot;&gt;&lt;span style=&quot;font-size: 14px;&quot;&gt;&lt;b&gt;UTIL MENU&lt;/b&gt;&lt;/span&gt;&lt;/font&gt;" style="text;html=1;align=center;verticalAlign=middle;resizable=0;points=[];autosize=1;strokeColor=none;fillColor=none;fontSize=12;" parent="1" vertex="1">
          <mxGeometry x="1196" y="20" width="90" height="20" as="geometry" />
        </mxCell>
        <mxCell id="wkvPEHSoq6BBhoxMYLxY-95" value="" style="edgeStyle=orthogonalEdgeStyle;rounded=0;orthogonalLoop=1;jettySize=auto;html=1;fontSize=14;fontColor=#333333;startArrow=none;startFill=0;endArrow=classic;endFill=1;" parent="1" source="wkvPEHSoq6BBhoxMYLxY-85" target="wkvPEHSoq6BBhoxMYLxY-94" edge="1">
          <mxGeometry relative="1" as="geometry" />
        </mxCell>
        <mxCell id="wkvPEHSoq6BBhoxMYLxY-85" value="본인인증" style="rounded=1;whiteSpace=wrap;html=1;fillColor=#f5f5f5;strokeColor=#666666;fontColor=#333333;" parent="1" vertex="1">
          <mxGeometry x="1480" y="160" width="120" height="60" as="geometry" />
        </mxCell>
        <mxCell id="wkvPEHSoq6BBhoxMYLxY-87" value="&lt;font color=&quot;#333333&quot;&gt;&lt;span style=&quot;font-size: 14px;&quot;&gt;&lt;b&gt;&amp;nbsp;HEADER&lt;/b&gt;&lt;/span&gt;&lt;/font&gt;" style="text;html=1;align=center;verticalAlign=middle;resizable=0;points=[];autosize=1;strokeColor=none;fillColor=none;fontSize=12;" parent="1" vertex="1">
          <mxGeometry x="890" y="420" width="80" height="20" as="geometry" />
        </mxCell>
        <mxCell id="sv6jZYAcOgZdvbpMtWue-5" value="" style="edgeStyle=orthogonalEdgeStyle;rounded=0;orthogonalLoop=1;jettySize=auto;html=1;fontColor=#69FFC8;" edge="1" parent="1" source="wkvPEHSoq6BBhoxMYLxY-91" target="sv6jZYAcOgZdvbpMtWue-4">
          <mxGeometry relative="1" as="geometry" />
        </mxCell>
        <mxCell id="sv6jZYAcOgZdvbpMtWue-12" value="" style="edgeStyle=orthogonalEdgeStyle;rounded=0;orthogonalLoop=1;jettySize=auto;html=1;fontColor=#69FFC8;endArrow=none;endFill=0;" edge="1" parent="1" source="wkvPEHSoq6BBhoxMYLxY-91" target="sv6jZYAcOgZdvbpMtWue-11">
          <mxGeometry relative="1" as="geometry" />
        </mxCell>
        <mxCell id="wkvPEHSoq6BBhoxMYLxY-91" value="brands&lt;br&gt;(브랜드소개)" style="rounded=1;whiteSpace=wrap;html=1;" parent="1" vertex="1">
          <mxGeometry x="870" y="450" width="120" height="60" as="geometry" />
        </mxCell>
        <mxCell id="wkvPEHSoq6BBhoxMYLxY-98" value="" style="edgeStyle=orthogonalEdgeStyle;rounded=0;orthogonalLoop=1;jettySize=auto;html=1;fontSize=14;fontColor=#333333;startArrow=none;startFill=0;endArrow=classic;endFill=1;" parent="1" source="wkvPEHSoq6BBhoxMYLxY-94" target="wkvPEHSoq6BBhoxMYLxY-97" edge="1">
          <mxGeometry relative="1" as="geometry" />
        </mxCell>
        <mxCell id="wkvPEHSoq6BBhoxMYLxY-94" value="개인정보 수집" style="rounded=1;whiteSpace=wrap;html=1;fillColor=#f5f5f5;strokeColor=#666666;fontColor=#333333;" parent="1" vertex="1">
          <mxGeometry x="1480" y="270" width="120" height="60" as="geometry" />
        </mxCell>
        <mxCell id="wkvPEHSoq6BBhoxMYLxY-99" style="edgeStyle=orthogonalEdgeStyle;rounded=0;orthogonalLoop=1;jettySize=auto;html=1;exitX=0;exitY=0.5;exitDx=0;exitDy=0;fontSize=14;fontColor=#333333;startArrow=none;startFill=0;endArrow=classic;endFill=1;entryX=1;entryY=0.5;entryDx=0;entryDy=0;" parent="1" source="wkvPEHSoq6BBhoxMYLxY-97" target="wkvPEHSoq6BBhoxMYLxY-76" edge="1">
          <mxGeometry relative="1" as="geometry">
            <mxPoint x="1320" y="439.5" as="targetPoint" />
            <Array as="points">
              <mxPoint x="1440" y="410" />
              <mxPoint x="1440" y="190" />
            </Array>
          </mxGeometry>
        </mxCell>
        <mxCell id="wkvPEHSoq6BBhoxMYLxY-97" value="가입완료" style="rounded=1;whiteSpace=wrap;html=1;fillColor=#f5f5f5;strokeColor=#666666;fontColor=#333333;" parent="1" vertex="1">
          <mxGeometry x="1480" y="380" width="120" height="60" as="geometry" />
        </mxCell>
        <mxCell id="sv6jZYAcOgZdvbpMtWue-1" value="&lt;font color=&quot;#ff9999&quot;&gt;로그아웃상태&lt;/font&gt;" style="text;html=1;align=center;verticalAlign=middle;resizable=0;points=[];autosize=1;strokeColor=none;fillColor=none;fontSize=12;" vertex="1" parent="1">
          <mxGeometry x="1120" y="135" width="90" height="20" as="geometry" />
        </mxCell>
        <mxCell id="sv6jZYAcOgZdvbpMtWue-3" value="&lt;font color=&quot;#7ea6e0&quot;&gt;로그인상태&lt;/font&gt;" style="text;html=1;align=center;verticalAlign=middle;resizable=0;points=[];autosize=1;strokeColor=none;fillColor=none;fontSize=12;" vertex="1" parent="1">
          <mxGeometry x="1276" y="135" width="80" height="20" as="geometry" />
        </mxCell>
        <mxCell id="sv6jZYAcOgZdvbpMtWue-7" style="edgeStyle=orthogonalEdgeStyle;rounded=0;orthogonalLoop=1;jettySize=auto;html=1;exitX=0.5;exitY=1;exitDx=0;exitDy=0;entryX=0.5;entryY=0;entryDx=0;entryDy=0;fontColor=#69FFC8;endArrow=none;endFill=0;" edge="1" parent="1" source="sv6jZYAcOgZdvbpMtWue-4" target="sv6jZYAcOgZdvbpMtWue-6">
          <mxGeometry relative="1" as="geometry" />
        </mxCell>
        <mxCell id="sv6jZYAcOgZdvbpMtWue-4" value="펫소시크" style="rounded=1;whiteSpace=wrap;html=1;fillColor=#dae8fc;strokeColor=#6c8ebf;" vertex="1" parent="1">
          <mxGeometry x="1070" y="450" width="120" height="60" as="geometry" />
        </mxCell>
        <mxCell id="sv6jZYAcOgZdvbpMtWue-9" value="" style="edgeStyle=orthogonalEdgeStyle;rounded=0;orthogonalLoop=1;jettySize=auto;html=1;fontColor=#69FFC8;endArrow=none;endFill=0;" edge="1" parent="1" source="sv6jZYAcOgZdvbpMtWue-6" target="sv6jZYAcOgZdvbpMtWue-8">
          <mxGeometry relative="1" as="geometry" />
        </mxCell>
        <mxCell id="sv6jZYAcOgZdvbpMtWue-6" value="맥스본" style="rounded=1;whiteSpace=wrap;html=1;fillColor=#dae8fc;strokeColor=#6c8ebf;" vertex="1" parent="1">
          <mxGeometry x="1070" y="540" width="120" height="60" as="geometry" />
        </mxCell>
        <mxCell id="sv6jZYAcOgZdvbpMtWue-8" value="밀크 앤 페퍼" style="rounded=1;whiteSpace=wrap;html=1;fillColor=#dae8fc;strokeColor=#6c8ebf;" vertex="1" parent="1">
          <mxGeometry x="1070" y="630" width="120" height="60" as="geometry" />
        </mxCell>
        <mxCell id="sv6jZYAcOgZdvbpMtWue-14" value="" style="edgeStyle=orthogonalEdgeStyle;rounded=0;orthogonalLoop=1;jettySize=auto;html=1;fontColor=#69FFC8;endArrow=none;endFill=0;" edge="1" parent="1" source="sv6jZYAcOgZdvbpMtWue-11" target="sv6jZYAcOgZdvbpMtWue-13">
          <mxGeometry relative="1" as="geometry" />
        </mxCell>
        <mxCell id="sv6jZYAcOgZdvbpMtWue-20" style="edgeStyle=orthogonalEdgeStyle;rounded=0;orthogonalLoop=1;jettySize=auto;html=1;exitX=1;exitY=0.5;exitDx=0;exitDy=0;fontSize=18;fontColor=#FF3333;endArrow=classic;endFill=1;" edge="1" parent="1" source="sv6jZYAcOgZdvbpMtWue-11" target="sv6jZYAcOgZdvbpMtWue-19">
          <mxGeometry relative="1" as="geometry" />
        </mxCell>
        <mxCell id="sv6jZYAcOgZdvbpMtWue-11" value="outdoor" style="rounded=1;whiteSpace=wrap;html=1;" vertex="1" parent="1">
          <mxGeometry x="870" y="740" width="120" height="60" as="geometry" />
        </mxCell>
        <mxCell id="sv6jZYAcOgZdvbpMtWue-22" style="edgeStyle=orthogonalEdgeStyle;rounded=0;orthogonalLoop=1;jettySize=auto;html=1;fontSize=18;fontColor=#FF3333;endArrow=classic;endFill=1;" edge="1" parent="1" source="sv6jZYAcOgZdvbpMtWue-13" target="sv6jZYAcOgZdvbpMtWue-19">
          <mxGeometry relative="1" as="geometry" />
        </mxCell>
        <mxCell id="sv6jZYAcOgZdvbpMtWue-37" value="" style="edgeStyle=orthogonalEdgeStyle;rounded=0;orthogonalLoop=1;jettySize=auto;html=1;fontSize=12;fontColor=#67AB9F;endArrow=none;endFill=0;strokeColor=#1A1A1A;" edge="1" parent="1" source="sv6jZYAcOgZdvbpMtWue-13" target="sv6jZYAcOgZdvbpMtWue-36">
          <mxGeometry relative="1" as="geometry" />
        </mxCell>
        <mxCell id="sv6jZYAcOgZdvbpMtWue-13" value="indoor" style="rounded=1;whiteSpace=wrap;html=1;" vertex="1" parent="1">
          <mxGeometry x="870" y="840" width="120" height="60" as="geometry" />
        </mxCell>
        <mxCell id="sv6jZYAcOgZdvbpMtWue-18" value="&lt;font size=&quot;1&quot; color=&quot;#ff3333&quot;&gt;&lt;b style=&quot;font-size: 16px;&quot;&gt;가장 핵심적인부분 - outdoor와 indoor의 큰 차이점은 없으므로 같은 맥락으로 제작&lt;br&gt;디테일한 논의 필요함&lt;br&gt;&lt;/b&gt;&lt;/font&gt;" style="text;html=1;strokeColor=none;fillColor=none;align=center;verticalAlign=middle;whiteSpace=wrap;rounded=0;fontColor=#69FFC8;" vertex="1" parent="1">
          <mxGeometry x="1286" y="675" width="680" height="30" as="geometry" />
        </mxCell>
        <mxCell id="sv6jZYAcOgZdvbpMtWue-25" value="" style="edgeStyle=orthogonalEdgeStyle;rounded=0;orthogonalLoop=1;jettySize=auto;html=1;fontSize=12;fontColor=#FF3333;endArrow=classic;endFill=1;" edge="1" parent="1" source="sv6jZYAcOgZdvbpMtWue-19" target="sv6jZYAcOgZdvbpMtWue-24">
          <mxGeometry relative="1" as="geometry" />
        </mxCell>
        <mxCell id="sv6jZYAcOgZdvbpMtWue-19" value="상품 리스트 페이지" style="rounded=1;whiteSpace=wrap;html=1;fillColor=#dae8fc;strokeColor=#6c8ebf;" vertex="1" parent="1">
          <mxGeometry x="1070" y="790" width="120" height="60" as="geometry" />
        </mxCell>
        <mxCell id="sv6jZYAcOgZdvbpMtWue-27" value="" style="edgeStyle=orthogonalEdgeStyle;rounded=0;orthogonalLoop=1;jettySize=auto;html=1;fontSize=12;fontColor=#FF3333;endArrow=classic;endFill=1;strokeColor=#7EA6E0;" edge="1" parent="1" source="sv6jZYAcOgZdvbpMtWue-24" target="sv6jZYAcOgZdvbpMtWue-26">
          <mxGeometry relative="1" as="geometry" />
        </mxCell>
        <mxCell id="sv6jZYAcOgZdvbpMtWue-28" style="edgeStyle=orthogonalEdgeStyle;rounded=0;orthogonalLoop=1;jettySize=auto;html=1;entryX=0.5;entryY=1;entryDx=0;entryDy=0;fontSize=12;fontColor=#FF3333;endArrow=classic;endFill=1;exitX=0.5;exitY=0;exitDx=0;exitDy=0;strokeColor=#FF9999;" edge="1" parent="1" source="sv6jZYAcOgZdvbpMtWue-24" target="wkvPEHSoq6BBhoxMYLxY-68">
          <mxGeometry relative="1" as="geometry">
            <Array as="points">
              <mxPoint x="1305" y="410" />
              <mxPoint x="1165" y="410" />
            </Array>
          </mxGeometry>
        </mxCell>
        <mxCell id="sv6jZYAcOgZdvbpMtWue-24" value="상품 상세페이지" style="rounded=1;whiteSpace=wrap;html=1;fillColor=#dae8fc;strokeColor=#6c8ebf;" vertex="1" parent="1">
          <mxGeometry x="1245" y="790" width="120" height="60" as="geometry" />
        </mxCell>
        <mxCell id="sv6jZYAcOgZdvbpMtWue-33" value="" style="edgeStyle=orthogonalEdgeStyle;rounded=0;orthogonalLoop=1;jettySize=auto;html=1;fontSize=12;fontColor=#FF3333;endArrow=classic;endFill=1;strokeColor=#7EA6E0;" edge="1" parent="1" source="sv6jZYAcOgZdvbpMtWue-26" target="sv6jZYAcOgZdvbpMtWue-32">
          <mxGeometry relative="1" as="geometry" />
        </mxCell>
        <mxCell id="sv6jZYAcOgZdvbpMtWue-26" value="결제페이지" style="rounded=1;whiteSpace=wrap;html=1;fillColor=#dae8fc;strokeColor=#6c8ebf;" vertex="1" parent="1">
          <mxGeometry x="1500" y="790" width="120" height="60" as="geometry" />
        </mxCell>
        <mxCell id="sv6jZYAcOgZdvbpMtWue-29" value="&lt;font color=&quot;#ff9999&quot;&gt;구매하기 클릭시&lt;br&gt;로그인을 안했다면&lt;br&gt;로그인 페이지로 이동&lt;br&gt;&lt;/font&gt;" style="text;html=1;align=center;verticalAlign=middle;resizable=0;points=[];autosize=1;strokeColor=none;fillColor=none;fontSize=12;" vertex="1" parent="1">
          <mxGeometry x="1315" y="550" width="130" height="50" as="geometry" />
        </mxCell>
        <mxCell id="sv6jZYAcOgZdvbpMtWue-30" value="&lt;font color=&quot;#7ea6e0&quot;&gt;구매하기 클릭시&lt;br&gt;로그인중이라면&lt;/font&gt;" style="text;html=1;align=center;verticalAlign=middle;resizable=0;points=[];autosize=1;strokeColor=none;fillColor=none;fontSize=12;" vertex="1" parent="1">
          <mxGeometry x="1376" y="830" width="100" height="30" as="geometry" />
        </mxCell>
        <mxCell id="sv6jZYAcOgZdvbpMtWue-32" value="결제 완료" style="rounded=1;whiteSpace=wrap;html=1;fillColor=#dae8fc;strokeColor=#6c8ebf;" vertex="1" parent="1">
          <mxGeometry x="1700" y="790" width="120" height="60" as="geometry" />
        </mxCell>
        <mxCell id="sv6jZYAcOgZdvbpMtWue-34" value="&lt;font color=&quot;#67ab9f&quot;&gt;마이페이지 안에&amp;nbsp;&lt;br&gt;장바구니 들어가 &lt;br&gt;있는걸로&lt;br&gt;&lt;/font&gt;" style="text;html=1;align=center;verticalAlign=middle;resizable=0;points=[];autosize=1;strokeColor=none;fillColor=none;fontSize=12;" vertex="1" parent="1">
          <mxGeometry x="1315" y="360" width="110" height="50" as="geometry" />
        </mxCell>
        <mxCell id="sv6jZYAcOgZdvbpMtWue-41" value="" style="edgeStyle=orthogonalEdgeStyle;rounded=0;orthogonalLoop=1;jettySize=auto;html=1;fontSize=12;fontColor=#67AB9F;endArrow=classic;endFill=1;strokeColor=#1A1A1A;" edge="1" parent="1" source="sv6jZYAcOgZdvbpMtWue-36" target="sv6jZYAcOgZdvbpMtWue-40">
          <mxGeometry relative="1" as="geometry" />
        </mxCell>
        <mxCell id="sv6jZYAcOgZdvbpMtWue-36" value="cotielog" style="rounded=1;whiteSpace=wrap;html=1;" vertex="1" parent="1">
          <mxGeometry x="870" y="980" width="120" height="60" as="geometry" />
        </mxCell>
        <mxCell id="sv6jZYAcOgZdvbpMtWue-39" value="&lt;font color=&quot;#ff9999&quot;&gt;검색도 추가?&lt;/font&gt;" style="text;html=1;align=center;verticalAlign=middle;resizable=0;points=[];autosize=1;strokeColor=none;fillColor=none;fontSize=12;" vertex="1" parent="1">
          <mxGeometry x="590" y="155" width="90" height="20" as="geometry" />
        </mxCell>
        <mxCell id="sv6jZYAcOgZdvbpMtWue-45" value="" style="edgeStyle=orthogonalEdgeStyle;rounded=0;orthogonalLoop=1;jettySize=auto;html=1;fontSize=12;fontColor=#67AB9F;endArrow=none;endFill=0;strokeColor=#1A1A1A;" edge="1" parent="1" source="sv6jZYAcOgZdvbpMtWue-40" target="sv6jZYAcOgZdvbpMtWue-44">
          <mxGeometry relative="1" as="geometry" />
        </mxCell>
        <mxCell id="sv6jZYAcOgZdvbpMtWue-40" value="cotielog" style="rounded=1;whiteSpace=wrap;html=1;fillColor=#dae8fc;strokeColor=#6c8ebf;" vertex="1" parent="1">
          <mxGeometry x="1070" y="980" width="120" height="60" as="geometry" />
        </mxCell>
        <mxCell id="sv6jZYAcOgZdvbpMtWue-44" value="FAQ" style="rounded=1;whiteSpace=wrap;html=1;fillColor=#dae8fc;strokeColor=#6c8ebf;" vertex="1" parent="1">
          <mxGeometry x="1070" y="1070" width="120" height="60" as="geometry" />
        </mxCell>
        <mxCell id="sv6jZYAcOgZdvbpMtWue-46" value="" style="rounded=0;whiteSpace=wrap;html=1;fontSize=14;fontColor=#333333;strokeWidth=2;fillColor=none;dashed=1;strokeColor=#CC99FF;" vertex="1" parent="1">
          <mxGeometry x="1050" y="959.5" width="160" height="181" as="geometry" />
        </mxCell>
        <mxCell id="sv6jZYAcOgZdvbpMtWue-47" value="&lt;font color=&quot;#cc99ff&quot;&gt;관리자페이지에서&lt;br&gt;관리 할 수 있도록 제작&lt;br&gt;&lt;/font&gt;" style="text;html=1;align=center;verticalAlign=middle;resizable=0;points=[];autosize=1;strokeColor=none;fillColor=none;fontSize=12;" vertex="1" parent="1">
          <mxGeometry x="1225" y="990" width="140" height="30" as="geometry" />
        </mxCell>
        <mxCell id="sv6jZYAcOgZdvbpMtWue-48" value="" style="shape=link;html=1;rounded=0;fontSize=12;endArrow=none;endFill=0;" edge="1" parent="1">
          <mxGeometry width="100" relative="1" as="geometry">
            <mxPoint x="2020" y="30" as="sourcePoint" />
            <mxPoint x="2020" y="1160" as="targetPoint" />
          </mxGeometry>
        </mxCell>
        <mxCell id="sv6jZYAcOgZdvbpMtWue-49" value="&lt;b&gt;&lt;font style=&quot;font-size: 26px;&quot;&gt;USER&lt;/font&gt;&lt;/b&gt;" style="shape=tape;whiteSpace=wrap;html=1;fontSize=16;fontColor=#CC99FF;strokeColor=#CC99FF;size=0.18181818181818182;" vertex="1" parent="1">
          <mxGeometry x="1810" y="40" width="170" height="75" as="geometry" />
        </mxCell>
        <mxCell id="sv6jZYAcOgZdvbpMtWue-50" value="&lt;span style=&quot;font-size: 26px;&quot;&gt;&lt;b&gt;ADMIN&lt;/b&gt;&lt;/span&gt;" style="shape=tape;whiteSpace=wrap;html=1;fontSize=16;fontColor=#CC99FF;strokeColor=#CC99FF;size=0.18181818181818182;" vertex="1" parent="1">
          <mxGeometry x="2725" y="31.5" width="170" height="75" as="geometry" />
        </mxCell>
        <mxCell id="sv6jZYAcOgZdvbpMtWue-54" value="" style="edgeStyle=orthogonalEdgeStyle;rounded=0;orthogonalLoop=1;jettySize=auto;html=1;fontSize=26;fontColor=#4D4D4D;endArrow=none;endFill=0;strokeColor=#1A1A1A;" edge="1" parent="1" source="sv6jZYAcOgZdvbpMtWue-52" target="sv6jZYAcOgZdvbpMtWue-53">
          <mxGeometry relative="1" as="geometry" />
        </mxCell>
        <mxCell id="sv6jZYAcOgZdvbpMtWue-52" value="관리자 메인" style="rounded=1;whiteSpace=wrap;html=1;" vertex="1" parent="1">
          <mxGeometry x="2080" y="59" width="120" height="60" as="geometry" />
        </mxCell>
        <mxCell id="sv6jZYAcOgZdvbpMtWue-56" value="" style="edgeStyle=orthogonalEdgeStyle;rounded=0;orthogonalLoop=1;jettySize=auto;html=1;fontSize=26;fontColor=#4D4D4D;endArrow=none;endFill=0;strokeColor=#1A1A1A;" edge="1" parent="1" source="sv6jZYAcOgZdvbpMtWue-53" target="sv6jZYAcOgZdvbpMtWue-55">
          <mxGeometry relative="1" as="geometry" />
        </mxCell>
        <mxCell id="sv6jZYAcOgZdvbpMtWue-60" value="" style="edgeStyle=orthogonalEdgeStyle;rounded=0;orthogonalLoop=1;jettySize=auto;html=1;fontSize=26;fontColor=#4D4D4D;endArrow=none;endFill=0;strokeColor=#1A1A1A;" edge="1" parent="1" source="sv6jZYAcOgZdvbpMtWue-53" target="sv6jZYAcOgZdvbpMtWue-59">
          <mxGeometry relative="1" as="geometry" />
        </mxCell>
        <mxCell id="sv6jZYAcOgZdvbpMtWue-53" value="회원관리" style="rounded=1;whiteSpace=wrap;html=1;fillColor=#fff2cc;strokeColor=#d6b656;" vertex="1" parent="1">
          <mxGeometry x="2280" y="59" width="120" height="60" as="geometry" />
        </mxCell>
        <mxCell id="sv6jZYAcOgZdvbpMtWue-58" value="" style="edgeStyle=orthogonalEdgeStyle;rounded=0;orthogonalLoop=1;jettySize=auto;html=1;fontSize=26;fontColor=#4D4D4D;endArrow=none;endFill=0;strokeColor=#1A1A1A;" edge="1" parent="1" source="sv6jZYAcOgZdvbpMtWue-55" target="sv6jZYAcOgZdvbpMtWue-57">
          <mxGeometry relative="1" as="geometry" />
        </mxCell>
        <mxCell id="sv6jZYAcOgZdvbpMtWue-62" value="" style="edgeStyle=orthogonalEdgeStyle;rounded=0;orthogonalLoop=1;jettySize=auto;html=1;fontSize=26;fontColor=#4D4D4D;endArrow=none;endFill=0;strokeColor=#1A1A1A;" edge="1" parent="1" source="sv6jZYAcOgZdvbpMtWue-55" target="sv6jZYAcOgZdvbpMtWue-61">
          <mxGeometry relative="1" as="geometry" />
        </mxCell>
        <mxCell id="sv6jZYAcOgZdvbpMtWue-55" value="상품관리" style="rounded=1;whiteSpace=wrap;html=1;fillColor=#fff2cc;strokeColor=#d6b656;" vertex="1" parent="1">
          <mxGeometry x="2280" y="175" width="120" height="60" as="geometry" />
        </mxCell>
        <mxCell id="sv6jZYAcOgZdvbpMtWue-70" value="" style="edgeStyle=orthogonalEdgeStyle;rounded=0;orthogonalLoop=1;jettySize=auto;html=1;fontSize=12;fontColor=#4D4D4D;endArrow=none;endFill=0;strokeColor=#1A1A1A;" edge="1" parent="1" source="sv6jZYAcOgZdvbpMtWue-57" target="sv6jZYAcOgZdvbpMtWue-69">
          <mxGeometry relative="1" as="geometry" />
        </mxCell>
        <mxCell id="sv6jZYAcOgZdvbpMtWue-79" value="" style="edgeStyle=orthogonalEdgeStyle;rounded=0;orthogonalLoop=1;jettySize=auto;html=1;fontSize=12;fontColor=#FF9999;endArrow=none;endFill=0;strokeColor=#1A1A1A;" edge="1" parent="1" source="sv6jZYAcOgZdvbpMtWue-57" target="sv6jZYAcOgZdvbpMtWue-78">
          <mxGeometry relative="1" as="geometry" />
        </mxCell>
        <mxCell id="sv6jZYAcOgZdvbpMtWue-57" value="배송관리" style="rounded=1;whiteSpace=wrap;html=1;fillColor=#fff2cc;strokeColor=#d6b656;" vertex="1" parent="1">
          <mxGeometry x="2280" y="390" width="120" height="60" as="geometry" />
        </mxCell>
        <mxCell id="sv6jZYAcOgZdvbpMtWue-59" value="회원정보" style="rounded=1;whiteSpace=wrap;html=1;fillColor=#dae8fc;strokeColor=#6c8ebf;" vertex="1" parent="1">
          <mxGeometry x="2480" y="60" width="120" height="60" as="geometry" />
        </mxCell>
        <mxCell id="sv6jZYAcOgZdvbpMtWue-64" value="" style="edgeStyle=orthogonalEdgeStyle;rounded=0;orthogonalLoop=1;jettySize=auto;html=1;fontSize=26;fontColor=#4D4D4D;endArrow=none;endFill=0;strokeColor=#1A1A1A;" edge="1" parent="1" source="sv6jZYAcOgZdvbpMtWue-61" target="sv6jZYAcOgZdvbpMtWue-63">
          <mxGeometry relative="1" as="geometry" />
        </mxCell>
        <mxCell id="sv6jZYAcOgZdvbpMtWue-61" value="카테고리관리" style="rounded=1;whiteSpace=wrap;html=1;fillColor=#dae8fc;strokeColor=#6c8ebf;" vertex="1" parent="1">
          <mxGeometry x="2480" y="175" width="120" height="60" as="geometry" />
        </mxCell>
        <mxCell id="sv6jZYAcOgZdvbpMtWue-63" value="상품관리" style="rounded=1;whiteSpace=wrap;html=1;fillColor=#dae8fc;strokeColor=#6c8ebf;" vertex="1" parent="1">
          <mxGeometry x="2480" y="270" width="120" height="60" as="geometry" />
        </mxCell>
        <mxCell id="sv6jZYAcOgZdvbpMtWue-68" value="&lt;span style=&quot;font-family: Helvetica; font-size: 12px; font-style: normal; font-variant-ligatures: normal; font-variant-caps: normal; font-weight: 400; letter-spacing: normal; orphans: 2; text-align: center; text-indent: 0px; text-transform: none; widows: 2; word-spacing: 0px; -webkit-text-stroke-width: 0px; background-color: rgb(248, 249, 250); text-decoration-thickness: initial; text-decoration-style: initial; text-decoration-color: initial; float: none; display: inline !important;&quot;&gt;&lt;font color=&quot;#7ea6e0&quot;&gt;지속가능한&amp;nbsp; 페이지 구성을 위해서는&lt;br&gt;&amp;nbsp;indoor outdoor를 분리 하지 않고, buy로 묶고 &lt;br&gt;indoor outdoor를 소메뉴로로 나누는 것이 어떨까&lt;/font&gt;&lt;/span&gt;" style="text;whiteSpace=wrap;html=1;fontSize=12;fontColor=#4D4D4D;" vertex="1" parent="1">
          <mxGeometry x="2060" y="250" width="270" height="60" as="geometry" />
        </mxCell>
        <mxCell id="sv6jZYAcOgZdvbpMtWue-72" value="" style="edgeStyle=orthogonalEdgeStyle;rounded=0;orthogonalLoop=1;jettySize=auto;html=1;fontSize=12;fontColor=#4D4D4D;endArrow=none;endFill=0;strokeColor=#1A1A1A;" edge="1" parent="1" source="sv6jZYAcOgZdvbpMtWue-69" target="sv6jZYAcOgZdvbpMtWue-71">
          <mxGeometry relative="1" as="geometry" />
        </mxCell>
        <mxCell id="sv6jZYAcOgZdvbpMtWue-69" value="배송 전 상품" style="rounded=1;whiteSpace=wrap;html=1;fillColor=#dae8fc;strokeColor=#6c8ebf;" vertex="1" parent="1">
          <mxGeometry x="2480" y="390" width="120" height="60" as="geometry" />
        </mxCell>
        <mxCell id="sv6jZYAcOgZdvbpMtWue-76" value="" style="edgeStyle=orthogonalEdgeStyle;rounded=0;orthogonalLoop=1;jettySize=auto;html=1;fontSize=12;fontColor=#7EA6E0;endArrow=none;endFill=0;strokeColor=#1A1A1A;" edge="1" parent="1" source="sv6jZYAcOgZdvbpMtWue-71" target="sv6jZYAcOgZdvbpMtWue-75">
          <mxGeometry relative="1" as="geometry" />
        </mxCell>
        <mxCell id="sv6jZYAcOgZdvbpMtWue-71" value="배송 중 상품" style="rounded=1;whiteSpace=wrap;html=1;fillColor=#dae8fc;strokeColor=#6c8ebf;" vertex="1" parent="1">
          <mxGeometry x="2480" y="480" width="120" height="60" as="geometry" />
        </mxCell>
        <mxCell id="sv6jZYAcOgZdvbpMtWue-73" value="&lt;div style=&quot;&quot;&gt;재고 관리 (상품 개수)&lt;/div&gt;&lt;div style=&quot;&quot;&gt;찜한 횟수&lt;/div&gt;&lt;div style=&quot;&quot;&gt;판매 횟수&lt;/div&gt;" style="text;whiteSpace=wrap;html=1;fontSize=12;fontColor=#4D4D4D;align=left;" vertex="1" parent="1">
          <mxGeometry x="2620" y="270" width="270" height="60" as="geometry" />
        </mxCell>
        <mxCell id="sv6jZYAcOgZdvbpMtWue-74" value="&lt;div style=&quot;&quot;&gt;indoor&amp;nbsp;&lt;/div&gt;&lt;div style=&quot;&quot;&gt;outdoor 같은 카테고리 추가 관리&lt;/div&gt;" style="text;whiteSpace=wrap;html=1;fontSize=12;fontColor=#4D4D4D;align=left;" vertex="1" parent="1">
          <mxGeometry x="2625" y="180" width="270" height="60" as="geometry" />
        </mxCell>
        <mxCell id="sv6jZYAcOgZdvbpMtWue-83" value="" style="edgeStyle=orthogonalEdgeStyle;rounded=0;orthogonalLoop=1;jettySize=auto;html=1;fontSize=12;fontColor=#FF9999;endArrow=none;endFill=0;strokeColor=#1A1A1A;" edge="1" parent="1" source="sv6jZYAcOgZdvbpMtWue-75" target="sv6jZYAcOgZdvbpMtWue-82">
          <mxGeometry relative="1" as="geometry" />
        </mxCell>
        <mxCell id="sv6jZYAcOgZdvbpMtWue-75" value="배송 완료된 상품" style="rounded=1;whiteSpace=wrap;html=1;fillColor=#dae8fc;strokeColor=#6c8ebf;" vertex="1" parent="1">
          <mxGeometry x="2480" y="585" width="120" height="60" as="geometry" />
        </mxCell>
        <mxCell id="sv6jZYAcOgZdvbpMtWue-77" value="&lt;div style=&quot;&quot;&gt;&lt;font color=&quot;#ff9999&quot;&gt;이게 될진 의문 (택배 상하차 상황을 알 수 있지는 않으니까)&lt;/font&gt;&lt;/div&gt;&lt;div style=&quot;&quot;&gt;&lt;font color=&quot;#ff9999&quot;&gt;여의치 않는다면 며칠이 지나면 배송 완료로 뜰 수 있도록 하는 방법으로 대체&lt;/font&gt;&lt;/div&gt;" style="text;whiteSpace=wrap;html=1;fontSize=12;fontColor=#4D4D4D;align=left;" vertex="1" parent="1">
          <mxGeometry x="2620" y="470" width="270" height="60" as="geometry" />
        </mxCell>
        <mxCell id="sv6jZYAcOgZdvbpMtWue-81" value="" style="edgeStyle=orthogonalEdgeStyle;rounded=0;orthogonalLoop=1;jettySize=auto;html=1;fontSize=12;fontColor=#FF9999;endArrow=none;endFill=0;strokeColor=#1A1A1A;" edge="1" parent="1" source="sv6jZYAcOgZdvbpMtWue-78" target="sv6jZYAcOgZdvbpMtWue-80">
          <mxGeometry relative="1" as="geometry" />
        </mxCell>
        <mxCell id="sv6jZYAcOgZdvbpMtWue-78" value="후기관리" style="rounded=1;whiteSpace=wrap;html=1;fillColor=#fff2cc;strokeColor=#d6b656;" vertex="1" parent="1">
          <mxGeometry x="2280" y="815" width="120" height="60" as="geometry" />
        </mxCell>
        <mxCell id="sv6jZYAcOgZdvbpMtWue-80" value="후기 정보" style="rounded=1;whiteSpace=wrap;html=1;fillColor=#dae8fc;strokeColor=#6c8ebf;" vertex="1" parent="1">
          <mxGeometry x="2480" y="815" width="120" height="60" as="geometry" />
        </mxCell>
        <mxCell id="sv6jZYAcOgZdvbpMtWue-82" value="반품 요청 관리" style="rounded=1;whiteSpace=wrap;html=1;fillColor=#dae8fc;strokeColor=#6c8ebf;" vertex="1" parent="1">
          <mxGeometry x="2480" y="690" width="120" height="60" as="geometry" />
        </mxCell>
      </root>
    </mxGraphModel>
  </diagram>
</mxfile>
